<svg xmlns="http://www.w3.org/2000/svg" viewBox="0 0 122.5 102.9"><defs><style>.a{fill:#333;}.b{fill:#fff;}</style></defs><title>jingling</title><path class="a" d="M37.3,102.6a11.8,11.8,0,0,1-5.9-1.5c-1-.5-1.7-1.6-2.2-3.4a17.9,17.9,0,0,1-.3-3.4,29.7,29.7,0,0,1,.7-4.6l.2-.9-.7.6-.6.5a48.6,48.6,0,0,1-4.6,4.8,29.1,29.1,0,0,1-2.7,2.4,12.8,12.8,0,0,1-2.5,2,7.5,7.5,0,0,1-1.7,1l-2.4.8a.8.8,0,0,1,.2-.5,28.1,28.1,0,0,1,4.4-5.2c1.8-1.7,3.6-3.4,5.3-5.3l.6-.8-.9.3-3.6.6a2.1,2.1,0,0,1-1.6-.7,3.7,3.7,0,0,1-.9-2,1.4,1.4,0,0,1,1-1.2,60.7,60.7,0,0,0,6.4-1,70,70,0,0,0,7.3-1.7,17.9,17.9,0,0,1,3.6-1c.3,0,.7.3,1.3.7a1.9,1.9,0,0,1,.7,1.2,1.8,1.8,0,0,1-1.7,1.8l-3.2.8.2.3q.6,1.3-.9,3.9a14.7,14.7,0,0,0-.7,5c.2,2.1,1.7,3.1,4.5,3.1s4.8-.8,6.1-2.3,1.6-2.5,1.8-5.8l.4-1c.1.4.1.8.2,1.3s1.2,2.5,1.9,2.8.8,1.5.8,4a9.2,9.2,0,0,0-1.3,2.4,5.7,5.7,0,0,1-2.9,1.1A21.8,21.8,0,0,1,37.3,102.6ZM2.9,95.3c-.6,0-1.1-.1-1.3-.4s-.8-1-.8-1.1a2.6,2.6,0,0,1,.7-1.7l.8-.8h.3v-.3Q1.3,88.4,1.3,80.7c0-3.7.2-8.1.4-12.9.3-1.7.7-3.5,1.1-5.4s.9-1.6,1.3-1.6a2.5,2.5,0,0,1,1.3.6,4.5,4.5,0,0,1,.9,1.1v.2h.2l1.5-.2H9.4a2.9,2.9,0,0,1,1.9-1.1A3.5,3.5,0,0,1,14,62.7c.7.7,1,2,1,4,0,5.3,0,10.3-.1,14.9v.3h.4a37.4,37.4,0,0,0,4.2-1.1h.2V78.1h-.4l-1.4.2h0a1.5,1.5,0,0,1-1.3-.6,2.7,2.7,0,0,1-.8-1.6,1.1,1.1,0,0,1,.6-.6l1.9-.5,1.5-.6h.1l.3-1.4a8.8,8.8,0,0,1,.9-2l.2-.2-.3-.2c-.1-.1-.3-.2-.3-.3a2.4,2.4,0,0,1-1-1.8c0-.9.5-1.3,1.4-1.5l3.4-.6,1.6-.3V63.5h-.4a5.5,5.5,0,0,1-1.8.2,2.7,2.7,0,0,1-2.4-.9A3,3,0,0,1,20.4,61a1.4,1.4,0,0,1,.8-.9,23.4,23.4,0,0,1,4.6-.9h.3V58a6.5,6.5,0,0,1,.8-3.1,2.9,2.9,0,0,1,1.4-.8c.3,0,.9.2,2.1,1.4a3.7,3.7,0,0,1,.7,1.6v.4h.4a13.6,13.6,0,0,1,2.7-.6h0a1.8,1.8,0,0,1,1.4.6,2.1,2.1,0,0,1,.9,1.7c0,.5-.4,1-1.2,1.3l-4.7,1.9h-.2v.2a8.3,8.3,0,0,0-.3,2.2v.4h.4l2.9-.9,2.5-.9c1.2.2,1.8.7,1.8,1.6s-.1,1.1-.5,1.4a3.1,3.1,0,0,1-1.9,1l-.7.3-.9.3h.1L33,68l-3.5,1.2a39.4,39.4,0,0,0-5.4,1.4h-.2V71c.1.4.2,1,.3,1.6v.2h.2l.9.5a1.5,1.5,0,0,1,.4,1.1c0,.4-.3.8-.9,1.1l-1.8,1.1H23l-.6,2.6v.5l.5-.2,2-.9c1.2.2,1.3.7,1.3,1.2a1,1,0,0,1-.4.9,2.2,2.2,0,0,1-1.4.8,22.7,22.7,0,0,1-3.4,1.5l-3.7,1.3-2,.5h-.3v4.4c-.3,3.6-1.5,5.4-3.5,5.4s-1.4-.4-1.4-1.3.2-2.1.3-3.3v-1l-.6.8A24.1,24.1,0,0,1,5.3,94,4.1,4.1,0,0,1,2.9,95.3ZM7.7,74.2a3.7,3.7,0,0,1,1.6.5c.6.3.7.6.7.9s-.7,1.7-2,2.3l-2.9.9H4.9v2.6c0,1.5.1,4,.2,7.5v.5l2.8-1.6,2.5-1.1v-.2c.3-4.8.4-11.4.4-19.4,0-2.5-.1-2.7-.5-2.7H10c0,.1-.2.3-1.7.7a8.3,8.3,0,0,0-2.3.8H5.8v.2A59.7,59.7,0,0,0,5,74.9v.6l.5-.3A4.9,4.9,0,0,1,7.7,74.2Zm21.8,7.2a1.8,1.8,0,0,1-1.3-.6,1.6,1.6,0,0,1-.7-1.3c.1-.7.5-1,1.2-1.2l2.7-.4h.2l.3-.9.3-.9v-.5H30.5c-1,0-1.7-.2-2-.7a1.9,1.9,0,0,1-.8-1.5c0-.3.2-.5.5-.7l2.6-.6,2.1-.3v-.2c.2-.9.2-1.6.3-2.2s.1-1,.2-1.1l.3-.7.7.3,1.6.5a3.4,3.4,0,0,1,1,1.7v.4h.4l2-.5h0a1.8,1.8,0,0,1,1.2.5,1.6,1.6,0,0,1,.6,1.3c0,.1,0,.7-1,1A32.2,32.2,0,0,1,36,74.5h-.2C35,77,35,77,35.1,77.1h.3c.1,0,.2,0,.2-.1l5.5-1.5c1.2.2,1.4.8,1.4,1.2a1.9,1.9,0,0,1-.4,1.2,2.7,2.7,0,0,1-1.6.7,30,30,0,0,1-4.8,1.4l-3.8.9A9.7,9.7,0,0,1,29.5,81.4Z" transform="translate(-0.8 -0.6)"/><path class="a" d="M63.6,85a2.9,2.9,0,0,1-2.9-2.8,2.7,2.7,0,0,1,.9-2,2.8,2.8,0,0,1,2-.8,3.2,3.2,0,0,1,2,.8,2.6,2.6,0,0,1,.9,1.9A3.1,3.1,0,0,1,63.6,85Z" transform="translate(-0.8 -0.6)"/><path class="a" d="M88.4,103.5c.4-.8,1.9-2.7,6.6-7l4.2-4-.2-.3-1.4-1c-1.9-1.5-2.3-2.5-2.3-2.9v-.2l.3-.9.9-.2h.5a15.9,15.9,0,0,1,5.2,1.7h.3v-.2l1-1.3,2.2-2.9h0c0-.6-.4-.9-1-.9s-3.1-.3-3.7-.9l-.3-.2-2.1,2a27.3,27.3,0,0,1-2.5,2.3l-.9.7h.1l-.6.5a9.8,9.8,0,0,1-2.1,1.6l-1.7,1.1a3.7,3.7,0,0,1-1.5,1c-.1-.1-.1-.2-.1-.4a34.7,34.7,0,0,1,4.3-6.3c2.4-2.4,4.4-4.4,6.1-5.9l.8-.6h-1a56.5,56.5,0,0,0-8.5,1.6,16.7,16.7,0,0,1-4.3,1.6h-.2v.3a11.3,11.3,0,0,1-.2,1.3,12.3,12.3,0,0,0-.2,2.7,3.5,3.5,0,0,1-.7,2.1c-1.2,1.4-1.8,1.7-2,1.7l-.5-.2c-.3-.4-.7-1.2-.7-3.3a34.5,34.5,0,0,1,.7-6.7c1.2-3.9,1.9-4.1,2-4.1s.4.1,1.4.8a4.3,4.3,0,0,1,1.2,1.5V78H88l9.5-1.7,12.4-1.1h8a5.8,5.8,0,0,1,1.7-1.1c.5,0,1.1.4,1.8,1.3a8.8,8.8,0,0,1,2,4.1c0,.4,0,1.4-2.4,1.4l-3.4-.6h0a5.3,5.3,0,0,0-2,.8l-1.8.8h-.2a19,19,0,0,0,3.6-4.1l.3-.5h-4.3l-10.8,1,.4.5a2.5,2.5,0,0,1,.8,1.8.9.9,0,0,1-.3.5l-.7.5H106a4.1,4.1,0,0,0,2.5-.8,2.2,2.2,0,0,1,1.3-.4,2.1,2.1,0,0,1,1.2.5,2.1,2.1,0,0,1,.7,1.6c0,.8-.9,2.7-5,8.1l-1.1,1.4h-.1v.2a5.7,5.7,0,0,1,.4,2.2c0,1.7-.7,1.9-1.2,1.9a3.8,3.8,0,0,1-2.2-.6h-.3a38.1,38.1,0,0,1-8.4,5.5,19.3,19.3,0,0,1-3.4,1.8Zm3.7-28c-1,0-2-1.1-3.1-3.2a6.4,6.4,0,0,1-.4-5.8c.7-.8,1.1-.9,1.2-.9a1.8,1.8,0,0,1,1.4.4h.3a101.8,101.8,0,0,1,10.7-2.1h.1l1.4-2a18.6,18.6,0,0,0,1.4-2.1l.3-.4h-.5l-1.4-.2,2.3-.7h.1l.6-1a14.5,14.5,0,0,0,1.9-4.1,1.4,1.4,0,0,1,1.5-.8c1.6,0,2.4.9,2.4,2.6,0,.1-.1.4-.9,1.5l-.7.7,1-.3a24.9,24.9,0,0,0,4.9-2.1,4.5,4.5,0,0,1,1.6,1c.6.6.7,1,.7,1.1a2,2,0,0,1-1.1,1.9,8.5,8.5,0,0,1-3.8.6h-5.3a10.5,10.5,0,0,1-3.3,2.8c-1.3.7-1.4.7-1.4.9l-.3.5h.6l3.8-.3h.1a11.8,11.8,0,0,1,3.6.6h.2a2.5,2.5,0,0,1,1.3-.6,2.2,2.2,0,0,1,2.2,2.4,6.1,6.1,0,0,1-1.1,3.8c-1.5,1.9-3.1,2.8-4.8,2.8a.8.8,0,0,1-.8-.4v-.3h-.3c-.7.4-2.7.8-6.1,1.4l-4.1.6-2.6.3a1.7,1.7,0,0,1-1.2-.6,1.5,1.5,0,0,1-.6-1.1,1.1,1.1,0,0,1,1.1-1l1.9-.2h.4v-.4a17.7,17.7,0,0,1-.6-2.8v-.3h-.3a11.1,11.1,0,0,0-4.3,1.5h-.2l.5,2.6a8.7,8.7,0,0,1,.5,2.5C92.7,75.5,92.3,75.5,92.1,75.5Zm7.1-5.3v.5h.3l2.7-.4h.1v-.2a10.6,10.6,0,0,0,.6-2.2l.3-1.2.2-.5H103l-1.5.3L99,67h-.3v.3c.2,1,.3,2,.4,2.8Zm8.7-1c.5,0,1.1.1,1.2.5l.2.4.3-.3a6.5,6.5,0,0,0,1.1-1.2,6,6,0,0,0,1.2-3.8v-.5l-.5.2a9.3,9.3,0,0,1-4,1.2l-1.1.2v.3a.9.9,0,0,1,.1.5,5.4,5.4,0,0,1-1.3,2.5l-.5.6ZM95.3,63.5c-.5,0-1.1-.5-1.5-1.5v-.4h-.4a25.9,25.9,0,0,1-4.8.4c-1.3,0-2-.7-2.1-2.3s.1-.9,1.3-1.1l4.6-.5h.3v-.3c0-.3-.1-.5-.1-.8.1-1.8.6-2.8,1.5-2.8a4.5,4.5,0,0,1,1.9.7c.8.7.9,1,.9,1.2v1.5l5.1-1h.2c0,1.7-1.9,3.2-5.7,4.2h-.2v1.3C96.2,63.4,95.8,63.5,95.3,63.5Z" transform="translate(-0.8 -0.6)"/><path class="b" d="M37.3,50.6a11.8,11.8,0,0,1-5.9-1.5c-1-.5-1.7-1.6-2.2-3.4a17.9,17.9,0,0,1-.3-3.4,29.7,29.7,0,0,1,.7-4.6l.2-.9-.7.6-.6.5a48.6,48.6,0,0,1-4.6,4.8,29.1,29.1,0,0,1-2.7,2.4,12.8,12.8,0,0,1-2.5,2,7.5,7.5,0,0,1-1.7,1l-2.4.8a.8.8,0,0,1,.2-.5,28.1,28.1,0,0,1,4.4-5.2c1.8-1.7,3.6-3.4,5.3-5.3l.6-.8-.9.3a21.1,21.1,0,0,1-3.6.6,2.1,2.1,0,0,1-1.6-.7,3.7,3.7,0,0,1-.9-2,1.4,1.4,0,0,1,1-1.2c.5,0,2.6-.3,6.4-1a63.9,63.9,0,0,0,7.3-1.7,20,20,0,0,1,3.6-1c.3,0,.7.3,1.3.7a1.9,1.9,0,0,1,.7,1.2,1.8,1.8,0,0,1-1.7,1.8l-3.2.8.2.3q.6,1.3-.9,3.9a14.7,14.7,0,0,0-.7,5c.2,2.1,1.7,3.1,4.5,3.1s4.8-.8,6.1-2.3,1.6-2.5,1.8-5.8l.4-1c.1.4.1.8.2,1.3s1.2,2.5,1.9,2.8.8,2,.8,4a9.2,9.2,0,0,0-1.3,2.4,5.7,5.7,0,0,1-2.9,1.1A21.8,21.8,0,0,1,37.3,50.6ZM2.9,43.3c-.6,0-1.1-.1-1.3-.4S.8,42,.8,41.8a2.6,2.6,0,0,1,.7-1.7c.5-.6.7-.8.8-.8h.3v-.3Q1.3,36.4,1.3,28.7c0-3.7.2-8.1.4-12.9.3-1.7.7-3.5,1.1-5.4s.9-1.6,1.3-1.6a2.5,2.5,0,0,1,1.3.6,4.5,4.5,0,0,1,.9,1.1v.2h.2l1.5-.2H9.4a2.9,2.9,0,0,1,1.9-1.1A3.7,3.7,0,0,1,14,10.7c.7.7,1,2,1,4,0,5.3,0,10.3-.1,14.9v.3h.4a37.4,37.4,0,0,0,4.2-1.1h.2V26.1h-.4l-1.4.2h0a1.5,1.5,0,0,1-1.3-.6,2.7,2.7,0,0,1-.8-1.6,1.1,1.1,0,0,1,.6-.6l1.9-.5,1.5-.6h.1l.3-1.4a8.8,8.8,0,0,1,.9-2l.2-.2-.3-.2-.3-.3a2.4,2.4,0,0,1-1-1.8c0-.9.5-1.3,1.4-1.5l3.4-.6,1.6-.3V11.5h-.4a5.5,5.5,0,0,1-1.8.2,2.7,2.7,0,0,1-2.4-.9A3,3,0,0,1,20.4,9a1.4,1.4,0,0,1,.8-.9,23.4,23.4,0,0,1,4.6-.9h.3V6a6.5,6.5,0,0,1,.8-3.1,2.9,2.9,0,0,1,1.4-.8c.3,0,.9.2,2.1,1.4a3.7,3.7,0,0,1,.7,1.6v.4h.4a13.6,13.6,0,0,1,2.7-.6h0a1.8,1.8,0,0,1,1.4.6,2.1,2.1,0,0,1,.9,1.7c0,.5-.4,1-1.2,1.3l-4.7,1.9h-.2v.2a8.3,8.3,0,0,0-.3,2.2v.4h.4l2.9-.9,2.5-.9c1.2.2,1.8.7,1.8,1.6s-.1,1.1-.5,1.4a3.1,3.1,0,0,1-1.9,1l-.7.3-.9.2h.1L33,16l-3.5,1.2a39.4,39.4,0,0,0-5.4,1.4h-.2V19c.1.4.2,1,.3,1.6v.2h.2l.9.5a1.5,1.5,0,0,1,.4,1.1c0,.4-.3.8-.9,1.1l-1.8,1.1H23l-.6,2.6v.5l.5-.2,2-.9c1.2.2,1.3.7,1.3,1.2a1,1,0,0,1-.4.9,2.2,2.2,0,0,1-1.4.8h-.1a17.5,17.5,0,0,1-3.3,1.5l-3.7,1.3a7.3,7.3,0,0,1-2,.5h-.3v4.4c-.3,3.6-1.5,5.4-3.5,5.4s-1.4-.4-1.4-1.3.2-2.1.3-3.3v-1l-.6.8A24.1,24.1,0,0,1,5.3,42,3.8,3.8,0,0,1,2.9,43.3ZM7.7,22.2a3.7,3.7,0,0,1,1.6.5.9.9,0,0,1,.7.9c0,1-.7,1.7-2,2.3l-2.9.9H4.9v2.6c0,1.5.1,4,.2,7.5v.5l2.8-1.6,2.5-1.1v-.2c.3-4.8.4-11.4.4-19.4,0-2.5-.1-2.7-.5-2.7H10c0,.1-.2.3-1.7.7L6,14H5.8v.2A59.7,59.7,0,0,0,5,22.9v.6l.5-.3A4.9,4.9,0,0,1,7.7,22.2Zm21.8,7.2a1.8,1.8,0,0,1-1.3-.6,1.6,1.6,0,0,1-.7-1.3c.1-.7.5-1,1.2-1.2l2.7-.4h.2l.3-.9.3-.9v-.5H30.5c-1,0-1.7-.2-2-.7a1.9,1.9,0,0,1-.8-1.5c0-.3.2-.5.5-.7l2.6-.6,2.1-.3v-.2c.2-.9.2-1.6.3-2.2s.1-1,.2-1.1l.3-.7.7.3,1.6.5a3.4,3.4,0,0,1,1,1.7v.4h.4l2-.5h0a1.8,1.8,0,0,1,1.2.5,1.6,1.6,0,0,1,.6,1.3c0,.1,0,.7-1,1A32.2,32.2,0,0,1,36,22.5h-.2C35,25,35,25,35.1,25.1h.5l5.5-1.5c1.2.2,1.4.8,1.4,1.2a1.9,1.9,0,0,1-.4,1.2,2.7,2.7,0,0,1-1.6.7,27,27,0,0,1-4.8,1.4l-3.8.9A9.7,9.7,0,0,1,29.5,29.4Z" transform="translate(-0.8 -0.6)"/><path class="b" d="M63.6,33a2.9,2.9,0,0,1-2.9-2.8,2.7,2.7,0,0,1,.9-2,2.8,2.8,0,0,1,2-.8,3.2,3.2,0,0,1,2,.8,2.6,2.6,0,0,1,.9,1.9,2.5,2.5,0,0,1-.9,2A2.5,2.5,0,0,1,63.6,33Z" transform="translate(-0.8 -0.6)"/><path class="b" d="M88.4,51.5c.4-.8,1.9-2.7,6.6-7l4.2-4-.2-.3-1.4-1c-1.9-1.5-2.3-2.5-2.3-3h.1l.3-.9.9-.2h.5a15.9,15.9,0,0,1,5.2,1.7h.3v-.2l1-1.3,2.2-2.9h0c0-.6-.4-.9-1-.9s-3.1-.3-3.7-.9l-.3-.2-2.1,2a27.3,27.3,0,0,1-2.5,2.3l-.9.7h.1l-.6.5a9.8,9.8,0,0,1-2.1,1.6l-1.7,1.1a3.7,3.7,0,0,1-1.5,1c-.1-.1-.1-.2-.1-.4a34.7,34.7,0,0,1,4.3-6.3c2.4-2.4,4.4-4.4,6.1-5.9l.8-.6h-1a56.5,56.5,0,0,0-8.5,1.6,16.7,16.7,0,0,1-4.3,1.6h-.2v.3a11.3,11.3,0,0,1-.2,1.3,12.3,12.3,0,0,0-.2,2.7,3.5,3.5,0,0,1-.7,2.1c-1.2,1.4-1.8,1.7-2,1.7l-.5-.2c-.3-.4-.7-1.2-.7-3.3a34.5,34.5,0,0,1,.7-6.7c1.2-3.9,1.9-4.1,2-4.1s.4.1,1.4.8a4.3,4.3,0,0,1,1.2,1.5V26H88l9.5-1.7,12.4-1.1h8a5.8,5.8,0,0,1,1.7-1.1c.5,0,1.1.4,1.8,1.3a8.8,8.8,0,0,1,2,4.1c0,.4,0,1.4-2.4,1.4l-3.4-.6h0a5.3,5.3,0,0,0-2,.8l-1.8.8h-.2a19,19,0,0,0,3.6-4.1l.3-.5h-4.3l-10.8,1,.4.5a2.5,2.5,0,0,1,.8,1.8.9.9,0,0,1-.3.5l-.7.5H106a4.1,4.1,0,0,0,2.5-.8,2.2,2.2,0,0,1,1.3-.4,2.1,2.1,0,0,1,1.2.5,2.1,2.1,0,0,1,.7,1.6c0,.8-.9,2.7-5,8.1a17.1,17.1,0,0,1-1.1,1.4h-.1v.2a5.7,5.7,0,0,1,.4,2.2c0,1.7-.7,1.9-1.2,1.9a3.8,3.8,0,0,1-2.2-.6h-.3a38.1,38.1,0,0,1-8.4,5.5,19.3,19.3,0,0,1-3.4,1.8Zm3.7-28.1c-1,0-2-1-3.1-3.1a6.4,6.4,0,0,1-.4-5.8c.7-.8,1.1-.9,1.2-.9a1.8,1.8,0,0,1,1.4.4h.3a101.8,101.8,0,0,1,10.7-2.1h.1l1.4-2a18.6,18.6,0,0,0,1.4-2.1l.3-.4h-.5l-1.4-.2,2.3-.7h.1l.6-1a14.5,14.5,0,0,0,1.9-4.1,1.4,1.4,0,0,1,1.5-.8c1.6,0,2.4.9,2.4,2.6,0,.1-.1.4-.9,1.5l-.7.7,1-.3A24.9,24.9,0,0,0,116.6,3a4.5,4.5,0,0,1,1.6,1c.6.6.7,1,.7,1.1A2,2,0,0,1,117.8,7a8.5,8.5,0,0,1-3.8.6h-5.3a10.5,10.5,0,0,1-3.3,2.8c-1.3.7-1.4.7-1.4.9l-.3.5h.6l3.8-.3h.2a11.7,11.7,0,0,1,3.5.6h.2a2.5,2.5,0,0,1,1.3-.6,2.2,2.2,0,0,1,2.2,2.4,6.1,6.1,0,0,1-1.1,3.8c-1.5,1.9-3.1,2.8-4.8,2.8a.8.8,0,0,1-.8-.4v-.3h-.3c-.7.4-2.7.8-6.1,1.4l-4.1.6-2.6.3a1.7,1.7,0,0,1-1.2-.6,1.5,1.5,0,0,1-.6-1.1,1.1,1.1,0,0,1,1.1-1l1.9-.2h.4v-.4a17.7,17.7,0,0,1-.6-2.8v-.3h-.3a11.1,11.1,0,0,0-4.3,1.5h-.2l.5,2.6a8.7,8.7,0,0,1,.5,2.5C92.7,23.4,92.3,23.4,92.1,23.4Zm7.1-5.2v.5h.3l2.7-.4h.1v-.2a10.6,10.6,0,0,0,.6-2.2c.2-.8.3-1.1.3-1.2l.2-.5H103l-1.5.3L99,15h-.3v.3c.2,1,.3,2,.4,2.8Zm8.7-1c.5,0,1.1.1,1.2.5l.2.4.3-.3a6.5,6.5,0,0,0,1.1-1.2,6,6,0,0,0,1.2-3.8v-.5l-.5.2a9.3,9.3,0,0,1-4,1.2l-1.1.2v.3a.9.9,0,0,1,.1.5,5.4,5.4,0,0,1-1.3,2.5l-.5.6ZM95.3,11.5c-.5,0-1.1-.5-1.5-1.5V9.6h-.4a25.9,25.9,0,0,1-4.8.4c-1.3,0-2-.7-2.1-2.4s.1-.8,1.3-1l4.6-.5h.3V5.9c0-.3-.1-.5-.1-.8s.6-2.8,1.5-2.8a4.5,4.5,0,0,1,1.9.7c.8.7.9,1,.9,1.2V5.7l5.1-1h.2c0,1.7-1.9,3.2-5.7,4.2h-.2v1.3C96.2,11.4,95.8,11.5,95.3,11.5Z" transform="translate(-0.8 -0.6)"/></svg>